<svg width="590" height="163" viewBox="0 0 590 163" fill="none" xmlns="http://www.w3.org/2000/svg">
<path d="M23.5763 128H0.0919746L42.8501 6.54545H70.0114L112.829 128H89.3445L56.9052 31.4531H55.9563L23.5763 128ZM24.3473 80.3789H88.3956V98.0515H24.3473V80.3789ZM127.877 162.159V36.9091H148.989V51.9723H150.235C151.342 49.7583 152.903 47.4059 154.92 44.9151C156.936 42.3848 159.664 40.2301 163.104 38.451C166.543 36.6323 170.932 35.723 176.269 35.723C183.307 35.723 189.652 37.5219 195.306 41.1197C200.999 44.6779 205.506 49.956 208.827 56.9538C212.188 63.9122 213.868 72.4519 213.868 82.5732C213.868 92.5758 212.227 101.076 208.946 108.074C205.664 115.072 201.197 120.409 195.543 124.086C189.889 127.763 183.485 129.601 176.329 129.601C171.11 129.601 166.781 128.731 163.341 126.992C159.901 125.252 157.134 123.157 155.038 120.706C152.983 118.215 151.381 115.862 150.235 113.648H149.345V162.159H127.877ZM148.93 82.4545C148.93 88.3454 149.76 93.5049 151.421 97.9329C153.121 102.361 155.552 105.82 158.715 108.311C161.918 110.762 165.792 111.988 170.339 111.988C175.083 111.988 179.057 110.723 182.259 108.192C185.461 105.623 187.873 102.124 189.494 97.6957C191.155 93.2281 191.985 88.1477 191.985 82.4545C191.985 76.8009 191.174 71.7798 189.553 67.3913C187.932 63.0028 185.521 59.5632 182.318 57.0724C179.116 54.5817 175.123 53.3363 170.339 53.3363C165.753 53.3363 161.858 54.5421 158.656 56.9538C155.454 59.3655 153.022 62.7459 151.362 67.0948C149.741 71.4438 148.93 76.5637 148.93 82.4545ZM232.252 162.159V36.9091H253.364V51.9723H254.61C255.717 49.7583 257.278 47.4059 259.295 44.9151C261.311 42.3848 264.039 40.2301 267.479 38.451C270.918 36.6323 275.307 35.723 280.644 35.723C287.682 35.723 294.027 37.5219 299.681 41.1197C305.374 44.6779 309.881 49.956 313.202 56.9538C316.563 63.9122 318.243 72.4519 318.243 82.5732C318.243 92.5758 316.602 101.076 313.321 108.074C310.039 115.072 305.572 120.409 299.918 124.086C294.264 127.763 287.86 129.601 280.704 129.601C275.485 129.601 271.156 128.731 267.716 126.992C264.276 125.252 261.509 123.157 259.413 120.706C257.358 118.215 255.756 115.862 254.61 113.648H253.72V162.159H232.252ZM253.305 82.4545C253.305 88.3454 254.135 93.5049 255.796 97.9329C257.496 102.361 259.927 105.82 263.09 108.311C266.293 110.762 270.167 111.988 274.714 111.988C279.458 111.988 283.432 110.723 286.634 108.192C289.836 105.623 292.248 102.124 293.869 97.6957C295.53 93.2281 296.36 88.1477 296.36 82.4545C296.36 76.8009 295.549 71.7798 293.928 67.3913C292.307 63.0028 289.896 59.5632 286.693 57.0724C283.491 54.5817 279.498 53.3363 274.714 53.3363C270.128 53.3363 266.233 54.5421 263.031 56.9538C259.829 59.3655 257.397 62.7459 255.737 67.0948C254.116 71.4438 253.305 76.5637 253.305 82.4545ZM376.954 129.779C367.821 129.779 359.934 127.881 353.292 124.086C346.689 120.251 341.609 114.835 338.051 107.837C334.492 100.799 332.713 92.5165 332.713 82.9883C332.713 73.6183 334.492 65.3948 338.051 58.3178C341.648 51.2013 346.669 45.6663 353.114 41.7127C359.558 37.7196 367.129 35.723 375.827 35.723C381.441 35.723 386.739 36.6323 391.721 38.451C396.742 40.2301 401.17 42.9976 405.005 46.7536C408.879 50.5095 411.924 55.2933 414.138 61.1051C416.352 66.8774 417.459 73.7566 417.459 81.7429V88.3256H342.795V73.8555H396.88C396.841 69.7437 395.951 66.0866 394.211 62.8842C392.472 59.6423 390.04 57.0922 386.917 55.234C383.833 53.3758 380.235 52.4467 376.124 52.4467C371.735 52.4467 367.88 53.5142 364.559 55.6491C361.238 57.7446 358.649 60.5121 356.791 63.9517C354.972 67.3518 354.043 71.0879 354.003 75.1602V87.7919C354.003 93.0897 354.972 97.6364 356.909 101.432C358.846 105.188 361.555 108.074 365.034 110.09C368.513 112.067 372.585 113.055 377.25 113.055C380.374 113.055 383.201 112.621 385.731 111.751C388.261 110.841 390.455 109.517 392.314 107.777C394.172 106.038 395.575 103.883 396.524 101.313L416.569 103.567C415.304 108.865 412.892 113.49 409.334 117.444C405.815 121.358 401.308 124.402 395.813 126.577C390.317 128.712 384.031 129.779 376.954 129.779ZM481.107 36.9091V53.5142H428.741V36.9091H481.107ZM441.669 15.0852H463.137V100.602C463.137 103.488 463.572 105.702 464.442 107.244C465.351 108.746 466.538 109.774 468 110.327C469.463 110.881 471.084 111.158 472.863 111.158C474.208 111.158 475.433 111.059 476.54 110.861C477.687 110.663 478.556 110.486 479.15 110.327L482.767 127.11C481.621 127.506 479.98 127.941 477.845 128.415C475.749 128.89 473.18 129.166 470.135 129.245C464.758 129.404 459.915 128.593 455.606 126.814C451.296 124.995 447.877 122.188 445.346 118.393C442.855 114.597 441.63 109.853 441.669 104.16V15.0852ZM499.061 128V36.9091H520.529V128H499.061ZM509.854 23.9808C506.454 23.9808 503.528 22.854 501.077 20.6005C498.626 18.3074 497.4 15.5597 497.4 12.3572C497.4 9.11529 498.626 6.36754 501.077 4.11398C503.528 1.8209 506.454 0.674357 509.854 0.674357C513.294 0.674357 516.219 1.8209 518.631 4.11398C521.082 6.36754 522.308 9.11529 522.308 12.3572C522.308 15.5597 521.082 18.3074 518.631 20.6005C516.219 22.854 513.294 23.9808 509.854 23.9808ZM588.091 36.9091V53.5142H535.725V36.9091H588.091ZM548.654 15.0852H570.122V100.602C570.122 103.488 570.557 105.702 571.426 107.244C572.336 108.746 573.522 109.774 574.985 110.327C576.448 110.881 578.069 111.158 579.848 111.158C581.192 111.158 582.417 111.059 583.525 110.861C584.671 110.663 585.541 110.486 586.134 110.327L589.751 127.11C588.605 127.506 586.964 127.941 584.829 128.415C582.734 128.89 580.164 129.166 577.12 129.245C571.743 129.404 566.9 128.593 562.59 126.814C558.281 124.995 554.861 122.188 552.331 118.393C549.84 114.597 548.614 109.853 548.654 104.16V15.0852Z" fill="white"/>
</svg>
